<?xml version="1.0" encoding="UTF-8" standalone="no"?>
<!-- Created with Inkscape (http://www.inkscape.org/) -->

<svg
   version="1.1"
   id="svg1"
   width="840"
   height="140"
   viewBox="0 0 840 140"
   sodipodi:docname="logo.svg"
   inkscape:version="1.3 (0e150ed6c4, 2023-07-21)"
   xmlns:inkscape="http://www.inkscape.org/namespaces/inkscape"
   xmlns:sodipodi="http://sodipodi.sourceforge.net/DTD/sodipodi-0.dtd"
   xmlns="http://www.w3.org/2000/svg"
   xmlns:svg="http://www.w3.org/2000/svg">
  <defs
     id="defs1" />
  <sodipodi:namedview
     id="namedview1"
     pagecolor="#ffffff"
     bordercolor="#000000"
     borderopacity="0.25"
     inkscape:showpageshadow="2"
     inkscape:pageopacity="0.0"
     inkscape:pagecheckerboard="0"
     inkscape:deskcolor="#d7d7d7"
     inkscape:zoom="1.208238"
     inkscape:cx="411.3428"
     inkscape:cy="64.556817"
     inkscape:window-width="1718"
     inkscape:window-height="1360"
     inkscape:window-x="-7"
     inkscape:window-y="0"
     inkscape:window-maximized="0"
     inkscape:current-layer="g1" />
  <g
     inkscape:groupmode="layer"
     inkscape:label="Image"
     id="g1"
     style="display:inline;fill:#000000;fill-opacity:1"
     transform="translate(-26,-42.883965)">
    <path
       style="display:inline;fill:#16a34a;fill-opacity:1"
       d="M 36.634859,175.92742 34,173.85484 V 112.92742 52 l 2,-2 2,-2 h 3.509787 3.509788 L 46.759787,50.031925 48.5,52.06385 49,106.78192 49.5,161.5 l 27.839852,0.5 27.839848,0.5 1.91015,2.36078 1.91015,2.36079 v 3.2149 3.2149 l -2.31445,2.17432 L 104.3711,178 H 71.820407 39.269717 Z m 83.000001,0 L 117,173.85484 v -3.37468 -3.37468 L 139.08036,113.30274 161.16071,59.5 l 2.01279,-4.680257 2.01278,-4.680257 3.30799,-1.569743 L 171.80226,47 h 1.44965 1.44964 l 3.17961,1.108417 3.17961,1.108418 1.47103,2.844657 1.47103,2.844657 22.99858,56.205601 L 230,167.31736 v 3.26874 3.26874 l -2.63486,2.07258 L 224.73028,178 h -2.30937 -2.30938 l -2.50829,-2.25 -2.50829,-2.25 -20.31279,-49.34686 -20.3128,-49.346855 -0.98468,-0.135843 L 172.5,74.534599 154.85647,117.5173 137.21294,160.5 l 0.45255,0.75 0.45254,0.75 h 20.87589 20.87588 l 2.73361,1.03931 2.7336,1.03932 1.29969,1.71068 1.29969,1.71069 0.0318,3.17742 0.0318,3.17742 -2.63486,2.07258 L 182.73028,178 H 152.5 122.26972 Z m 132.6709,-0.34039 -2.80576,-2.41297 -0.29399,-57.33703 -0.294,-57.33703 0.59977,-3.305777 0.59977,-3.305777 1.94423,-1.944223 L 254,48 h 3.42742 3.42742 l 2.07258,2.634859 L 265,53.269717 v 58.818093 58.81808 l -1.11027,2.43679 -1.11027,2.43678 -2.43678,1.11027 L 257.90589,178 h -1.39718 -1.39718 z m 68.86855,0.0985 L 319,173.3711 V 128.40806 83.445012 L 320.5567,81.222506 322.11341,79 h 3.76898 3.76898 l 2.17432,2.314451 L 334,83.628902 v 44.731008 44.731 l -2.45455,2.45454 L 329.09091,178 h -2.87114 -2.87114 z m 43.28024,-0.1401 L 362,173.09091 v -2.78417 -2.78417 L 385.57767,110.01129 409.15533,52.5 l 2.44506,-2.5 2.44506,-2.5 h 4.27126 4.27125 l 2.45602,1.613108 2.45602,1.613108 23.89677,58.386894 23.89677,58.38689 0.0199,2.90826 0.0199,2.90827 -2.72243,2.34173 L 469.88847,178 h -2.00998 -2.00997 l -1.92391,-1.02964 -1.92391,-1.02965 -1.60595,-3.10557 -1.60596,-3.10558 L 439.80174,123.61478 420.7947,77.5 l -0.98999,-1.857359 -0.98999,-1.85736 -0.80507,0.85736 L 417.20458,75.5 400.10229,117.29257 383,159.08515 V 160.54257 162 h 20.85078 20.85077 l 3.17034,1.10518 3.17033,1.10519 0.97889,1.82907 0.97889,1.82908 v 2.89142 2.89143 l -2.31445,2.17432 L 428.3711,178 h -30.73101 -30.731 z M 489.4,174.6 486,171.2 v -4.2 -4.2 l 3.4,-3.4 3.4,-3.4 h 3.0349 3.0349 l 2.56464,0.97507 2.56464,0.97508 2.05298,3.27492 2.05298,3.27493 -0.49077,4 -0.49078,4 -3.07752,2.75 -3.07752,2.75 H 496.88422 492.8 Z m 41.52431,0.81926 L 528.5,172.83851 V 112.52407 52.209634 L 530.40499,50.104817 532.30998,48 h 3.77243 3.77243 l 2.07258,2.634859 L 544,53.269717 v 59.910593 59.9106 l -2.45455,2.45454 L 539.09091,178 h -2.87114 -2.87114 z m 29.98903,1.37803 -1.58665,-1.29729 -1.18755,-2.22948 -1.18754,-2.22948 0.61413,-2.44692 0.61414,-2.44693 1.85211,-1.67613 1.85211,-1.67614 10.06788,-0.79115 10.06787,-0.79114 7.24008,-3.48308 7.24008,-3.48308 4.17833,-3.63981 4.17832,-3.63981 4.0624,-6.08349 4.0624,-6.08349 2.00928,-6.50527 L 617,121.78933 v -8.71316 -8.71317 l -1.61152,-5.4315 -1.61153,-5.4315 -2.36188,-4.664275 -2.36188,-4.664276 -5.48459,-5.924011 -5.48459,-5.924011 -5.87346,-3.130521 -5.87346,-3.130522 -5.87864,-1.531192 L 574.5798,63 h -6.11558 -6.11559 l -2.34098,-2.49186 -2.34098,-2.49186 v -3.063695 -3.063696 l 2.19728,-2.194445 2.19728,-2.194444 7.92546,0.139722 7.92546,0.139722 5.29393,1.212605 5.29392,1.212606 8.5,4.036513 8.5,4.036513 8.11116,8.11116 8.11116,8.111159 4.05567,8.5 4.05567,8.5 1.71964,7.91223 1.71965,7.91223 -0.55484,9.58777 -0.55483,9.58777 -2.51105,7.33492 -2.51105,7.33493 -3.32059,5.59689 -3.32059,5.5969 -6,6.17609 -6,6.1761 -5.84629,3.73441 -5.84628,3.7344 -7.15372,2.48319 -7.15371,2.48318 -10,0.47179 -10,0.47179 z M 654.17431,175.68555 652,173.3711 v -32.75129 -32.75129 l 0.97889,-1.82908 0.97889,-1.82907 3.17033,-1.10519 L 660.29845,102 H 687.5 714.70155 l 3.17034,1.10518 3.17033,1.10519 0.97889,1.82907 0.97889,1.82908 v 2.91075 2.91075 l -2.10283,1.90499 L 718.79435,117.5 693.14717,118 667.5,118.5 v 21.5 21.5 l 30.83973,0.5 30.83973,0.5 1.91027,2.36078 1.91027,2.36079 0.11848,1.63921 0.11849,1.63922 -0.20514,1.5 -0.20513,1.5 -2.08766,2.25 -2.08767,2.25 H 692.5 656.34863 Z m 138.99863,-0.001 -2.17568,-2.31591 L 772.92634,129.43409 754.85543,85.5 748.84897,70.647221 742.8425,55.794442 l 1.2159,-2.935438 1.2159,-2.935438 1.79711,-0.961783 L 748.86852,48 h 3.02678 3.02679 l 1.9253,2.066563 1.92529,2.066563 20.2677,49.465424 20.2677,49.46542 1.09596,-0.34981 1.09596,-0.34982 17.67271,-42.90272 17.67271,-42.902716 -0.48173,-0.779452 L 835.88197,63 H 813.1153 790.34863 L 788.17431,60.685549 786,58.371098 V 54.840536 51.309975 L 788.1045,49.404988 790.20899,47.5 h 30.81437 30.81436 l 2.58114,2.424314 L 857,52.348628 v 2.667007 2.667007 l -22.99859,56.205608 -22.99858,56.2056 -1.51177,2.92343 -1.51176,2.92343 -1.92391,1.02965 L 804.13148,178 h -4.39142 -4.39143 z M 283.45455,60.545455 281,58.090909 V 55.601218 53.111527 L 283.41342,50.305764 285.82683,47.5 h 40.43289 40.43289 l 1.75787,1.458903 1.75787,1.458902 0.87107,2.291098 L 371.9505,55 l -1.01457,2.668505 -1.01456,2.668505 -1.71068,1.299692 -1.71069,1.299691 -40.29545,0.0318 L 285.90909,63 Z M 654.17431,60.685549 652,58.371098 V 55.185549 52 l 1.94422,-1.944223 1.94423,-1.944223 3.30577,-0.613795 L 662.5,46.883965 695.83948,47.191982 729.17896,47.5 731.08948,49.860784 733,52.221568 v 3.214902 3.214902 L 730.68555,60.825686 728.3711,63 h -36.01124 -36.01123 z"
       id="path1" />
  </g>
</svg>
